# xmcd
# 
# Track frame offsets:
#     150
#     21810
#     46081
#     66534
#     92375
# 
# Disc length: 1611
# 
# Revision: 0
# Processed by: cddbd v1.5.2PL0 Copyright (c) Steve Scherf et al.
# Submitted via: fre:ac v1.0.17
# 
DISCID=36064905
DTITLE=Doroncoviccho For D.J Bonbon - The Point Of Contact Vol.1
DYEAR=2010
DGENRE=JPop
TTITLE0=motion
TTITLE1=101
TTITLE2=burn
TTITLE3=never
TTITLE4=ferris wheel
EXTD=
EXTT0=
EXTT1=
EXTT2=
EXTT3=
EXTT4=
PLAYORDER=
